<?xml version="1.0" encoding="utf-8"?>
<!-- Generator: Adobe Illustrator 18.1.1, SVG Export Plug-In . SVG Version: 6.00 Build 0)  -->
<!DOCTYPE svg PUBLIC "-//W3C//DTD SVG 1.0//EN" "http://www.w3.org/TR/2001/REC-SVG-20010904/DTD/svg10.dtd">
<svg version="1.0" id="Layer_1" xmlns="http://www.w3.org/2000/svg" xmlns:xlink="http://www.w3.org/1999/xlink" x="0px" y="0px"
	 viewBox="0 0 841.9 595.3" enable-background="new 0 0 841.9 595.3" xml:space="preserve">
<rect x="656.8" y="486.7" width="16.2" height="15.9"/>
<rect x="656.8" y="470.8" width="16.2" height="15.9"/>
<rect x="656.8" y="454.9" width="16.2" height="15.9"/>
<rect x="656.8" y="439" width="16.2" height="15.9"/>
<rect x="656.8" y="423.1" width="16.2" height="15.9"/>
<rect x="656.8" y="407.3" width="16.2" height="15.9"/>
<rect x="656.8" y="391.4" width="16.2" height="15.9"/>
<rect x="673" y="391.4" width="16.2" height="15.9"/>
<rect x="689.2" y="391.4" width="16.2" height="15.9"/>
<rect x="705.4" y="391.4" width="16.2" height="15.9"/>
<rect x="721.6" y="391.4" width="16.2" height="15.9"/>
<rect x="737.8" y="391.4" width="16.2" height="15.9"/>
<rect x="754" y="391.4" width="16.2" height="15.9"/>
<rect x="754" y="407.3" width="16.2" height="15.9"/>
<rect x="754" y="423.1" width="16.2" height="15.9"/>
<rect x="754" y="439" width="16.2" height="15.9"/>
<rect x="721.6" y="407.3" width="16.2" height="15.9"/>
<rect x="721.6" y="423.1" width="16.2" height="15.9"/>
<rect x="721.6" y="439" width="16.2" height="15.9"/>
<rect x="754" y="454.9" width="16.2" height="15.9"/>
<rect x="754" y="470.8" width="16.2" height="15.9"/>
<rect x="754" y="486.7" width="16.2" height="15.9"/>
<rect x="737.8" y="454.9" width="16.2" height="15.9"/>
<rect x="673" y="454.9" width="16.2" height="15.9"/>
<rect x="673" y="470.8" width="16.2" height="15.9"/>
<rect x="689.2" y="470.8" width="16.2" height="15.9"/>
<rect x="705.4" y="470.8" width="16.2" height="15.9"/>
<rect x="721.6" y="470.8" width="16.2" height="15.9"/>
<rect x="673" y="486.7" width="16.2" height="15.9"/>
<rect x="689.2" y="486.7" width="16.2" height="15.9"/>
<rect x="705.4" y="486.7" width="16.2" height="15.9"/>
<rect x="721.6" y="486.7" width="16.2" height="15.9"/>
<rect x="737.8" y="486.7" width="16.2" height="15.9"/>
<rect x="640.6" y="375.5" fill="none" stroke="#000000" stroke-width="0.1" stroke-miterlimit="10" width="145.8" height="142.9"/>
<rect x="249.4" y="793.1" width="16.2" height="15.9"/>
<rect x="249.4" y="777.2" width="16.2" height="15.9"/>
<rect x="249.4" y="761.3" width="16.2" height="15.9"/>
<rect x="249.4" y="745.4" width="16.2" height="15.9"/>
<rect x="249.4" y="729.5" width="16.2" height="15.9"/>
<rect x="249.4" y="713.6" width="16.2" height="15.9"/>
<rect x="249.4" y="697.8" width="16.2" height="15.9"/>
<rect x="265.6" y="697.8" width="16.2" height="15.9"/>
<rect x="281.8" y="697.8" width="16.2" height="15.9"/>
<rect x="298" y="697.8" width="16.2" height="15.9"/>
<rect x="314.2" y="697.8" width="16.2" height="15.9"/>
<rect x="330.4" y="697.8" width="16.2" height="15.9"/>
<rect x="346.6" y="697.8" width="16.2" height="15.9"/>
<rect x="346.6" y="713.6" width="16.2" height="15.9"/>
<rect x="346.6" y="729.5" width="16.2" height="15.9"/>
<rect x="346.6" y="745.4" width="16.2" height="15.9"/>
<rect x="314.2" y="713.6" width="16.2" height="15.9"/>
<rect x="314.2" y="729.5" width="16.2" height="15.9"/>
<rect x="314.2" y="745.4" width="16.2" height="15.9"/>
<rect x="346.6" y="761.3" width="16.2" height="15.9"/>
<rect x="346.6" y="777.2" width="16.2" height="15.9"/>
<rect x="346.6" y="793.1" width="16.2" height="15.9"/>
<rect x="330.4" y="761.3" width="16.2" height="15.9"/>
<rect x="265.6" y="761.3" width="16.2" height="15.9"/>
<rect x="265.6" y="777.2" width="16.2" height="15.9"/>
<rect x="281.8" y="777.2" width="16.2" height="15.9"/>
<rect x="298" y="777.2" width="16.2" height="15.9"/>
<rect x="314.2" y="777.2" width="16.2" height="15.9"/>
<rect x="265.6" y="793.1" width="16.2" height="15.9"/>
<rect x="281.8" y="793.1" width="16.2" height="15.9"/>
<rect x="298" y="793.1" width="16.2" height="15.9"/>
<rect x="314.2" y="793.1" width="16.2" height="15.9"/>
<rect x="330.4" y="793.1" width="16.2" height="15.9"/>
<rect x="233.2" y="681.9" fill="none" stroke="#000000" stroke-width="0.1" stroke-miterlimit="10" width="145.8" height="142.9"/>
<rect x="501.2" y="1007.8" width="16.2" height="15.9"/>
<rect x="501.2" y="991.9" width="16.2" height="15.9"/>
<rect x="501.2" y="976" width="16.2" height="15.9"/>
<rect x="501.2" y="960.1" width="16.2" height="15.9"/>
<rect x="501.2" y="944.2" width="16.2" height="15.9"/>
<rect x="501.2" y="928.3" width="16.2" height="15.9"/>
<rect x="501.2" y="912.5" width="16.2" height="15.9"/>
<rect x="517.4" y="912.5" width="16.2" height="15.9"/>
<rect x="533.6" y="912.5" width="16.2" height="15.9"/>
<rect x="549.8" y="912.5" width="16.2" height="15.9"/>
<rect x="566" y="912.5" width="16.2" height="15.9"/>
<rect x="582.2" y="912.5" width="16.2" height="15.9"/>
<rect x="598.4" y="912.5" width="16.2" height="15.9"/>
<rect x="598.4" y="928.3" width="16.2" height="15.9"/>
<rect x="598.4" y="944.2" width="16.2" height="15.9"/>
<rect x="598.4" y="960.1" width="16.2" height="15.9"/>
<rect x="566" y="928.3" width="16.2" height="15.9"/>
<rect x="566" y="944.2" width="16.2" height="15.9"/>
<rect x="566" y="960.1" width="16.2" height="15.9"/>
<rect x="598.4" y="976" width="16.2" height="15.9"/>
<rect x="598.4" y="991.9" width="16.2" height="15.9"/>
<rect x="598.4" y="1007.8" width="16.2" height="15.9"/>
<rect x="582.2" y="976" width="16.2" height="15.9"/>
<rect x="517.4" y="976" width="16.2" height="15.9"/>
<rect x="517.4" y="991.9" width="16.2" height="15.9"/>
<rect x="533.6" y="991.9" width="16.2" height="15.9"/>
<rect x="549.8" y="991.9" width="16.2" height="15.9"/>
<rect x="566" y="991.9" width="16.2" height="15.9"/>
<rect x="517.4" y="1007.8" width="16.2" height="15.9"/>
<rect x="533.6" y="1007.8" width="16.2" height="15.9"/>
<rect x="549.8" y="1007.8" width="16.2" height="15.9"/>
<rect x="566" y="1007.8" width="16.2" height="15.9"/>
<rect x="582.2" y="1007.8" width="16.2" height="15.9"/>
<rect x="485" y="896.6" fill="none" stroke="#000000" stroke-width="0.1" stroke-miterlimit="10" width="145.8" height="142.9"/>
<rect x="656.8" y="139.5" width="16.2" height="15.9"/>
<rect x="656.8" y="123.7" width="16.2" height="15.9"/>
<rect x="656.8" y="107.8" width="16.2" height="15.9"/>
<rect x="656.8" y="91.9" width="16.2" height="15.9"/>
<rect x="656.8" y="76" width="16.2" height="15.9"/>
<rect x="656.8" y="60.1" width="16.2" height="15.9"/>
<rect x="656.8" y="44.2" width="16.2" height="15.9"/>
<rect x="673" y="44.2" width="16.2" height="15.9"/>
<rect x="689.2" y="44.2" width="16.2" height="15.9"/>
<rect x="705.4" y="44.2" width="16.2" height="15.9"/>
<rect x="721.6" y="44.2" width="16.2" height="15.9"/>
<rect x="737.8" y="44.2" width="16.2" height="15.9"/>
<rect x="754" y="44.2" width="16.2" height="15.9"/>
<rect x="754" y="60.1" width="16.2" height="15.9"/>
<rect x="754" y="76" width="16.2" height="15.9"/>
<rect x="754" y="91.9" width="16.2" height="15.9"/>
<rect x="705.4" y="91.9" width="16.2" height="15.9"/>
<rect x="754" y="107.8" width="16.2" height="15.9"/>
<rect x="754" y="123.7" width="16.2" height="15.9"/>
<rect x="754" y="139.5" width="16.2" height="15.9"/>
<rect x="737.8" y="107.8" width="16.2" height="15.9"/>
<rect x="673" y="107.8" width="16.2" height="15.9"/>
<rect x="737.8" y="60.1" width="16.2" height="15.9"/>
<rect x="689.2" y="123.7" width="16.2" height="15.9"/>
<rect x="705.4" y="123.7" width="16.2" height="15.9"/>
<rect x="721.6" y="123.7" width="16.2" height="15.9"/>
<rect x="673" y="60.1" width="16.2" height="15.9"/>
<rect x="673" y="139.5" width="16.2" height="15.9"/>
<rect x="689.2" y="139.5" width="16.2" height="15.9"/>
<rect x="705.4" y="139.5" width="16.2" height="15.9"/>
<rect x="721.6" y="139.5" width="16.2" height="15.9"/>
<rect x="737.8" y="139.5" width="16.2" height="15.9"/>
<rect x="640.6" y="28.4" fill="none" stroke="#000000" stroke-width="0.1" stroke-miterlimit="10" width="145.8" height="142.9"/>
<rect x="62.6" y="139.5" width="16.2" height="15.9"/>
<rect x="62.6" y="123.7" width="16.2" height="15.9"/>
<rect x="62.6" y="107.8" width="16.2" height="15.9"/>
<rect x="62.6" y="91.9" width="16.2" height="15.9"/>
<rect x="62.6" y="76" width="16.2" height="15.9"/>
<rect x="62.6" y="60.1" width="16.2" height="15.9"/>
<rect x="62.6" y="44.2" width="16.2" height="15.9"/>
<rect x="78.8" y="44.2" width="16.2" height="15.9"/>
<rect x="95" y="44.2" width="16.2" height="15.9"/>
<rect x="111.2" y="44.2" width="16.2" height="15.9"/>
<rect x="127.4" y="44.2" width="16.2" height="15.9"/>
<rect x="143.6" y="44.2" width="16.2" height="15.9"/>
<rect x="159.8" y="44.2" width="16.2" height="15.9"/>
<rect x="159.8" y="60.1" width="16.2" height="15.9"/>
<rect x="159.8" y="76" width="16.2" height="15.9"/>
<rect x="159.8" y="91.9" width="16.2" height="15.9"/>
<rect x="78.8" y="91.9" width="16.2" height="15.9"/>
<rect x="159.8" y="107.8" width="16.2" height="15.9"/>
<rect x="159.8" y="123.7" width="16.2" height="15.9"/>
<rect x="159.8" y="139.5" width="16.2" height="15.9"/>
<rect x="78.8" y="76" width="16.2" height="15.9"/>
<rect x="78.8" y="107.8" width="16.2" height="15.9"/>
<rect x="78.8" y="123.7" width="16.2" height="15.9"/>
<rect x="95" y="123.7" width="16.2" height="15.9"/>
<rect x="111.2" y="123.7" width="16.2" height="15.9"/>
<rect x="127.4" y="123.7" width="16.2" height="15.9"/>
<rect x="78.8" y="139.5" width="16.2" height="15.9"/>
<rect x="95" y="139.5" width="16.2" height="15.9"/>
<rect x="111.2" y="139.5" width="16.2" height="15.9"/>
<rect x="127.4" y="139.5" width="16.2" height="15.9"/>
<rect x="143.6" y="139.5" width="16.2" height="15.9"/>
<rect x="46.4" y="28.4" fill="none" stroke="#000000" stroke-width="0.1" stroke-miterlimit="10" width="145.8" height="142.9"/>
</svg>
